<svg width="40" height="40" viewBox="0 0 40 40" fill="none" xmlns="http://www.w3.org/2000/svg">
<path d="M0 10C0 4.47715 4.47715 0 10 0H30C35.5228 0 40 4.47715 40 10V30C40 35.5228 35.5228 40 30 40H10C4.47715 40 0 35.5228 0 30V10Z" fill="#155DFC"/>
<path d="M29.4198 18.922C29.5988 18.843 29.7507 18.7133 29.8567 18.5488C29.9627 18.3843 30.0181 18.1924 30.0161 17.9967C30.0141 17.8011 29.9547 17.6103 29.8454 17.4481C29.736 17.2859 29.5814 17.1593 29.4008 17.084L20.8298 13.18C20.5692 13.0612 20.2862 12.9996 19.9998 12.9996C19.7134 12.9996 19.4304 13.0612 19.1698 13.18L10.5998 17.08C10.4218 17.158 10.2703 17.2861 10.164 17.4488C10.0576 17.6115 10.001 17.8016 10.001 17.996C10.001 18.1904 10.0576 18.3805 10.164 18.5432C10.2703 18.7059 10.4218 18.834 10.5998 18.912L19.1698 22.82C19.4304 22.9389 19.7134 23.0004 19.9998 23.0004C20.2862 23.0004 20.5692 22.9389 20.8298 22.82L29.4198 18.922Z" stroke="white" stroke-width="2" stroke-linecap="round" stroke-linejoin="round"/>
<path d="M30 18V24" stroke="white" stroke-width="2" stroke-linecap="round" stroke-linejoin="round"/>
<path d="M14 20.5V24C14 24.7956 14.6321 25.5587 15.7574 26.1213C16.8826 26.6839 18.4087 27 20 27C21.5913 27 23.1174 26.6839 24.2426 26.1213C25.3679 25.5587 26 24.7956 26 24V20.5" stroke="white" stroke-width="2" stroke-linecap="round" stroke-linejoin="round"/>
</svg>
