<svg width="584" height="584" viewBox="0 0 584 584" fill="none" xmlns="http://www.w3.org/2000/svg">
<path d="M0 16C0 7.16345 7.16344 0 16 0H568C576.837 0 584 7.16344 584 16V568C584 576.837 576.837 584 568 584H16C7.16345 584 0 576.837 0 568V16Z" fill="url(#paint0_linear_1_38)"/>
<g opacity="0.2">
<path d="M392.48 280.501C394.389 279.659 396.01 278.275 397.14 276.52C398.271 274.766 398.862 272.719 398.841 270.632C398.819 268.545 398.186 266.51 397.019 264.779C395.852 263.049 394.204 261.699 392.277 260.896L300.853 219.253C298.074 217.985 295.055 217.329 292 217.329C288.945 217.329 285.926 217.985 283.146 219.253L191.733 260.853C189.834 261.685 188.219 263.052 187.084 264.787C185.95 266.523 185.346 268.551 185.346 270.624C185.346 272.697 185.95 274.725 187.084 276.461C188.219 278.196 189.834 279.563 191.733 280.395L283.146 322.08C285.926 323.348 288.945 324.004 292 324.004C295.055 324.004 298.074 323.348 300.853 322.08L392.48 280.501Z" stroke="#155DFC" stroke-width="21.3333" stroke-linecap="round" stroke-linejoin="round"/>
<path d="M398.667 270.667V334.667" stroke="#155DFC" stroke-width="21.3333" stroke-linecap="round" stroke-linejoin="round"/>
<path d="M228 297.333V334.667C228 343.154 234.743 351.293 246.745 357.294C258.747 363.295 275.026 366.667 292 366.667C308.974 366.667 325.253 363.295 337.255 357.294C349.257 351.293 356 343.154 356 334.667V297.333" stroke="#155DFC" stroke-width="21.3333" stroke-linecap="round" stroke-linejoin="round"/>
</g>
<defs>
<linearGradient id="paint0_linear_1_38" x1="0" y1="0" x2="584" y2="584" gradientUnits="userSpaceOnUse">
<stop stop-color="#DBEAFE"/>
<stop offset="1" stop-color="#F3E8FF"/>
</linearGradient>
</defs>
</svg>
