<svg width="16" height="16" viewBox="0 0 16 16" fill="none" xmlns="http://www.w3.org/2000/svg">
<g clip-path="url(#clip0_162_2381)">
<path d="M7.99341 4.6626V13.9883" stroke="#99A1AF" stroke-width="1.33224" stroke-linecap="round" stroke-linejoin="round"/>
<path d="M1.99839 11.9903C1.82173 11.9903 1.6523 11.9201 1.52738 11.7952C1.40246 11.6703 1.33228 11.5009 1.33228 11.3242V2.66465C1.33228 2.48799 1.40246 2.31856 1.52738 2.19364C1.6523 2.06872 1.82173 1.99854 1.99839 1.99854H5.32899C6.03565 1.99854 6.71337 2.27926 7.21305 2.77894C7.71274 3.27863 7.99346 3.95635 7.99346 4.66301C7.99346 3.95635 8.27418 3.27863 8.77387 2.77894C9.27355 2.27926 9.95127 1.99854 10.6579 1.99854H13.9885C14.1652 1.99854 14.3346 2.06872 14.4595 2.19364C14.5845 2.31856 14.6546 2.48799 14.6546 2.66465V11.3242C14.6546 11.5009 14.5845 11.6703 14.4595 11.7952C14.3346 11.9201 14.1652 11.9903 13.9885 11.9903H9.99182C9.46182 11.9903 8.95353 12.2009 8.57876 12.5756C8.204 12.9504 7.99346 13.4587 7.99346 13.9887C7.99346 13.4587 7.78292 12.9504 7.40816 12.5756C7.03339 12.2009 6.5251 11.9903 5.9951 11.9903H1.99839Z" stroke="#99A1AF" stroke-width="1.33224" stroke-linecap="round" stroke-linejoin="round"/>
</g>
<defs>
<clipPath id="clip0_162_2381">
<rect width="15.9868" height="15.9868" fill="white"/>
</clipPath>
</defs>
</svg>
