<svg width="20" height="20" viewBox="0 0 20 20" fill="none" xmlns="http://www.w3.org/2000/svg">
<path d="M8.3335 1.66667V8.33334L10.8335 5.83334L13.3335 8.33334V1.66667" stroke="#364153" stroke-width="1.66667" stroke-linecap="round" stroke-linejoin="round"/>
<path d="M3.3335 16.25V3.75001C3.3335 3.19747 3.55299 2.66757 3.94369 2.27687C4.33439 1.88617 4.8643 1.66667 5.41683 1.66667H15.8335C16.0545 1.66667 16.2665 1.75447 16.4228 1.91075C16.579 2.06703 16.6668 2.27899 16.6668 2.50001V17.5C16.6668 17.721 16.579 17.933 16.4228 18.0893C16.2665 18.2455 16.0545 18.3333 15.8335 18.3333H5.41683C4.8643 18.3333 4.33439 18.1138 3.94369 17.7231C3.55299 17.3324 3.3335 16.8025 3.3335 16.25ZM3.3335 16.25C3.3335 15.6975 3.55299 15.1676 3.94369 14.7769C4.33439 14.3862 4.8643 14.1667 5.41683 14.1667H16.6668" stroke="#364153" stroke-width="1.66667" stroke-linecap="round" stroke-linejoin="round"/>
</svg>
